<svg xmlns="http://www.w3.org/2000/svg" width="31.63" height="32" viewBox="0 0 31.63 32">
  <g id="Group_1" data-name="Group 1" transform="translate(-689.5 -120)">
    <path id="Path_1" data-name="Path 1"
      d="M718.083,134.292a14.292,14.292,0,1,0-14.292,14.292A14.292,14.292,0,0,0,718.083,134.292Zm-14.292,8.939a8.939,8.939,0,1,1,8.939-8.939A8.939,8.939,0,0,1,703.792,143.231Z"
      transform="translate(0 0)" fill="#fff" />
    <path id="Path_2" data-name="Path 2"
      d="M1122.025,555.723l-3.713-3.713a.686.686,0,0,0-.966,0l-2.335,2.335a.685.685,0,0,0,0,.966l3.713,3.713a.685.685,0,0,0,.966,0l2.335-2.335A.685.685,0,0,0,1122.025,555.723Z"
      transform="translate(-401.094 -407.224)" fill="#fff" />
  </g>
</svg>
